HIERARCHY
ROOT simHips
{
  OFFSET 6.13146 95.3961 -0.669452
  CHANNELS 6 Xposition Yposition Zposition Zrotation Xrotation Yrotation
  JOINT simSpine
  {
    OFFSET -0.000360269 21.3001 -0.0169217
    CHANNELS 3 Zrotation Xrotation Yrotation
    JOINT simLeftArm
    {
      OFFSET 13.5181 21.3012 -2.3511e-005
      CHANNELS 3 Zrotation Xrotation Yrotation
      JOINT simLeftForeArm
      {
        OFFSET 24.5783 0 -6.3921e-005
        CHANNELS 3 Zrotation Xrotation Yrotation
        JOINT simLeftHand
        {
          OFFSET 24.5783 0 0
          CHANNELS 3 Zrotation Xrotation Yrotation
          End Site
          {
            OFFSET 7.32568 1.52588e-005 0.0169305
          }
        }
      }
    }
    JOINT simHead
    {
      OFFSET 0 27.4458 -0.00488811
      CHANNELS 3 Zrotation Xrotation Yrotation
      End Site
      {
        OFFSET 0 0 0
      }
    }
    JOINT simRightArm
    {
      OFFSET -13.5174 21.3012 -1.52733e-005
      CHANNELS 3 Zrotation Xrotation Yrotation
      JOINT simRightForeArm
      {
        OFFSET -24.5783 -0.000552281 0.000112897
        CHANNELS 3 Zrotation Xrotation Yrotation
        JOINT simRightHand
        {
          OFFSET -24.5783 0 1.19926e-005
          CHANNELS 3 Zrotation Xrotation Yrotation
          End Site
          {
            OFFSET -7.32568 1.52588e-005 0.0169305
          }
        }
      }
    }
  }
  JOINT simRightUpLeg
  {
    OFFSET -8.44614 -9.41038 0.835682
    CHANNELS 3 Zrotation Xrotation Yrotation
    JOINT simRightLeg
    {
      OFFSET -3.23466e-005 -40.9639 0
      CHANNELS 3 Zrotation Xrotation Yrotation
      JOINT simRightFoot
      {
        OFFSET 0 -40.9639 0
        CHANNELS 3 Zrotation Xrotation Yrotation
        End Site
        {
          OFFSET 0.50614 -9.67405 14.6709
        }
      }
    }
  }
  JOINT simLeftUpLeg
  {
    OFFSET 8.44614 -9.41038 0.835681
    CHANNELS 3 Zrotation Xrotation Yrotation
    JOINT simLeftLeg
    {
      OFFSET -0.00018133 -40.964 6.2497e-005
      CHANNELS 3 Zrotation Xrotation Yrotation
      JOINT simLeftFoot
      {
        OFFSET 0 -40.9639 0
        CHANNELS 3 Zrotation Xrotation Yrotation
        End Site
        {
          OFFSET -0.50614 -9.67405 14.6709
        }
      }
    }
  }
}
MOTION
Frames:	13
Frame Time:	0.0333333
-96.747 96.7462 4.4839 4.82438 11.176 -35.9839 0.85135 10.1413 12.7619 -65.9241 -2.17818 6.36522 0.00112092 4.66941e-006 -66.6276 -39.0175 -44.8433 -53.1243 -3.56968 -13.8486 2.07067 62.1272 10.3293 40.8794 -0.00922652 3.92258e-006 84.4986 171.05 -11.3691 -166.346 -23.3283 -8.05154 -29.3877 -0.0072069 25.872 0.0440347 25.542 -14.9328 5.67671 32.3805 -41.0749 22.3385 -0.005231 40.0553 -0.0569321 -18.1394 -4.90225 -9.47916 
-97.3108 96.9367 4.57664 4.44812 9.96718 -36.1458 1.30703 9.05084 12.6269 -66.0408 -2.61436 6.87437 0.00112095 4.57876e-006 -67.1074 -39.4994 -44.7277 -54.2876 -3.53828 -12.8242 2.30867 61.7372 10.4954 41.211 -0.00922658 3.21878e-006 85.4879 171.218 -11.2353 -165.734 -23.1451 -6.25546 -28.7962 -0.00628746 24.7858 0.0436413 25.4945 -14.7605 5.72707 31.3772 -39.1467 21.2506 -0.00206231 39.2464 -0.0629189 -18.405 -4.97971 -9.28106 
-97.8861 97.1318 4.67673 4.09775 8.81389 -36.3482 1.75831 7.82908 12.5421 -66.1165 -2.99425 7.39224 0.00112101 4.45485e-006 -67.7606 -39.6608 -44.7607 -54.3305 -3.3293 -11.5445 2.70372 61.3444 10.6901 41.4843 -0.00922662 2.70243e-006 86.2129 170.939 -11.2034 -165.776 -22.971 -4.50816 -28.2286 -0.00536004 23.6706 0.0432607 25.4187 -14.5661 5.76786 30.4636 -37.1982 20.2547 0.000740231 38.3599 -0.0686571 -18.6753 -5.0389 -9.05153 
-98.4466 97.3217 4.7818 3.77603 7.67205 -36.5362 2.15809 6.64591 12.4382 -66.1705 -3.33121 7.88157 0.00112106 4.31573e-006 -68.4904 -39.5893 -44.923 -53.5822 -3.18453 -10.2008 3.02361 60.9388 10.9118 41.7088 -0.00922665 2.22849e-006 86.8778 170.671 -10.974 -165.798 -22.8574 -2.77488 -27.7239 -0.00445867 22.5681 0.0429068 25.3352 -14.3623 5.81546 29.5575 -35.2574 19.2713 0.00311435 37.423 -0.0740219 -18.9395 -5.07726 -8.78768 
-98.9846 97.4923 4.87161 3.45052 6.59359 -36.7228 2.60379 5.53282 12.2904 -66.2949 -3.57619 8.31162 0.00112111 4.18627e-006 -69.1662 -39.5282 -45.0393 -53.0684 -3.19177 -8.76127 3.17282 60.6478 10.9418 41.7699 -0.00922668 1.5222e-006 87.8679 170.912 -10.8011 -165.343 -22.7573 -1.13901 -27.2588 -0.00365143 21.5656 0.0426035 25.2467 -14.1907 5.87241 28.7702 -33.3821 18.3764 0.00501223 36.4926 -0.0788281 -19.1976 -5.08698 -8.51885 
-99.4709 97.6415 4.95613 3.0911 5.53875 -36.9356 3.05136 4.64087 12.0606 -66.4517 -3.80581 8.66699 0.00112117 4.0397e-006 -69.9276 -39.4632 -45.0498 -52.678 -3.02202 -7.3872 3.3058 60.437 10.7874 41.8566 -0.00868921 -9.12078e-006 88.9478 171.139 -10.7755 -164.871 -22.6803 0.405079 -26.7705 -0.00388026 20.7105 0.0449274 25.1679 -14.0752 5.94151 28.0883 -31.5178 17.5661 0.00675547 35.5752 -0.0835789 -19.4424 -5.07559 -8.2492 
-99.9027 97.7704 5.03737 2.77572 4.49283 -37.1947 3.36556 3.92806 11.8017 -66.6014 -3.98895 8.94997 0.00112123 3.86215e-006 -70.8452 -39.2895 -45.1068 -52.148 -2.5979 -5.88506 3.62246 60.3606 10.4644 41.912 0.00123504 -7.93579e-006 89.9564 171.013 -10.2727 -164.228 -22.7134 1.81087 -26.2493 -0.00420148 20.0185 0.0473517 25.1097 -14.0163 6.02091 27.4349 -29.6943 16.8574 0.00758342 34.679 -0.0869133 -19.6643 -5.05609 -7.97645 
-100.291 97.8826 5.09566 2.55062 3.53245 -37.5256 3.5954 3.24095 11.5816 -66.7409 -4.1076 9.23764 0.0011213 3.65727e-006 -71.8976 -39.347 -45.5049 -51.2936 -2.25759 -4.29391 3.80966 60.3795 10.0871 41.7085 -0.00924682 -5.76836e-007 90.5415 170.926 -10.0749 -164.287 -22.8437 2.96647 -25.6968 -0.00459592 19.4953 0.0497531 25.0691 -14.0103 6.10003 26.8445 -27.9952 16.3152 0.00728768 33.8073 -0.0883463 -19.86 -5.01624 -7.69661 
-100.634 97.9775 5.13292 2.3832 2.67668 -37.8983 3.8036 2.61484 11.3696 -66.8896 -4.14715 9.55055 0.00112137 3.4313e-006 -73.0512 -39.0221 -45.6842 -50.1413 -1.96233 -2.59735 4.03907 60.5284 9.5362 41.2651 -0.00933835 -3.02944e-006 91.1376 171.155 -10.5554 -164.785 -23.0263 3.8903 -25.1319 -0.00488819 19.1261 0.0515686 25.0425 -14.0479 6.17529 26.3324 -26.448 15.9111 0.00681569 32.9853 -0.089423 -20.0272 -4.96133 -7.41898 
-100.93 98.0519 5.14439 2.25765 1.98783 -38.2952 4.0164 2.04205 11.1505 -67.1109 -4.09939 9.855 0.00112143 3.22081e-006 -74.1193 -38.2642 -45.6146 -48.9589 -1.70886 -0.950494 4.50998 60.7338 8.8773 40.7149 -0.00933827 -5.72265e-006 92.1493 171.395 -10.3128 -164.658 -23.201 4.54367 -24.5803 -0.00513624 18.9208 0.0528722 25.0212 -14.1309 6.24493 25.9596 -25.1219 15.6641 0.00625761 32.2581 -0.0901684 -20.1709 -4.9023 -7.1678 
-101.177 98.1022 5.11476 2.16585 1.51655 -38.7149 4.30034 1.54396 10.9327 -67.4211 -3.95355 10.0904 0.00112148 3.04732e-006 -74.9954 -37.5533 -45.3866 -48.0493 -1.82402 0.442706 5.06249 60.9242 8.14207 40.0199 -0.00933811 -8.97887e-006 93.3735 171.716 -9.76461 -163.881 -23.3285 4.84855 -24.0474 -0.00555351 18.9406 0.0541047 24.9885 -14.2748 6.30538 25.7824 -24.0846 15.6006 0.00569729 31.6685 -0.0906005 -20.2937 -4.83684 -6.95776 
-101.341 98.1428 5.06825 2.0994 1.20338 -39.1725 4.63796 1.19721 10.6329 -67.7612 -3.71139 10.2131 0.00112151 2.93066e-006 -75.5826 -37.1876 -45.016 -47.6868 -2.22703 1.53701 5.59062 61.1534 7.40308 39.2964 -0.0093379 -1.20786e-005 94.5402 172.077 -9.4387 -163.235 -23.4384 4.9048 -23.5181 -0.00602948 19.0727 0.0552003 24.9668 -14.4166 6.35492 25.7048 -23.255 15.6552 0.00505105 31.1711 -0.0906488 -20.3698 -4.77406 -6.74557 
-101.424 98.1717 4.99709 2.13749 1.07282 -39.6721 4.9324 0.89043 10.2606 -68.0313 -3.4808 10.3607 0.00112154 2.82116e-006 -76.1323 -36.8469 -44.675 -47.3158 -2.68603 2.4053 6.22833 61.5386 6.66136 38.6426 -0.00933766 -1.48375e-005 95.5802 172.495 -8.94002 -162.631 -23.5598 4.65005 -23.0256 -0.0065348 19.2938 0.0561207 24.9539 -14.5431 6.39122 25.7157 -22.7194 15.8948 0.00437863 30.7999 -0.0903189 -20.4012 -4.70876 -6.56026 
